# xmcd
#
# Track frame offsets:
#	16587
#	57807
#	76372
#	98155
#	108640
#	146585
#	176655
#	205700
#
# Disc length: 3081 seconds
#
# Revision: 1
# Processed by: cddbd v1.5.2PL0 Copyright (c) Steve Scherf et al.
# Submitted via: audiograbber 1.83.01
#
DISCID=6b0b2c08
DTITLE=The Skull Defects - Peer Amid
DYEAR=2011
DGENRE=
TTITLE0=Peer Amid
TTITLE1=No More Always
TTITLE2=Gospel Of The Skull
TTITLE3=The Silver River
TTITLE4=In Majestic Drag
TTITLE5=Fragrant Nimbus
TTITLE6=What Knives, What Birds
TTITLE7=Join The True
EXTD=
EXTT0=
EXTT1=
EXTT2=
EXTT3=
EXTT4=
EXTT5=
EXTT6=
EXTT7=
PLAYORDER=
